/vscmnt/brussel_pixiu_data/_data_brussel/112/vsc11236/PredSimResults/SUBJ04mtu3D/worker4.mot
version=1
nRows=10
nColumns=50
inDegrees=yes
endheader
                time	         pelvis_tilt	         pelvis_list	     pelvis_rotation	           pelvis_tx	           pelvis_ty	           pelvis_tz	       hip_flexion_r	     hip_adduction_r	      hip_rotation_r	        knee_angle_r	       ankle_angle_r	         mtp_angle_r	       hip_flexion_l	     hip_adduction_l	      hip_rotation_l	        knee_angle_l	       ankle_angle_l	         mtp_angle_l	    lumbar_extension	      lumbar_bending	     lumbar_rotation	 ercspn_r/activation	 intobl_r/activation	 extobl_r/activation	    abd_r/activation	    add_r/activation	hamstrings_r/activation	bifemsh_r/activation	glut_max_r/activation	iliopsoas_r/activation	rect_fem_r/activation	  vasti_r/activation	gastroc_r/activation	 soleus_r/activation	tib_ant_r/activation	 ercspn_l/activation	 intobl_l/activation	 extobl_l/activation	    abd_l/activation	    add_l/activation	hamstrings_l/activation	bifemsh_l/activation	glut_max_l/activation	iliopsoas_l/activation	rect_fem_l/activation	  vasti_l/activation	gastroc_l/activation	 soleus_l/activation	tib_ant_l/activation	
          1.26783891	         -1.69182032	         -1.29671605	          8.54225823	          1.19176858	          0.88829128	         -0.00495302	         26.44055102	         -0.17214295	         -2.63024292	         -9.84968833	          6.45554514	          0.23495845	        -10.61802946	         -1.12430818	          8.63805271	        -13.18502943	         12.33367563	         25.30434565	        -14.39073763	         -1.90010271	         -2.23774504	          0.02769165	          0.17682974	          0.04932597	          0.00999999	          0.11699323	          0.01268834	          0.01000000	          0.01982707	          0.02201041	          0.04304111	          0.07203184	          0.00999999	          0.00999999	          0.23037655	          0.00999999	          0.00999999	          0.00999999	          0.05116724	          0.00999999	          0.00999999	          0.13532313	          0.02607773	          0.08886141	          0.01000018	          0.00999999	          0.17032440	          0.27956430	          0.00999999	
          1.28051730	         -1.70603772	         -1.31783219	          8.27384401	          1.20677230	          0.88646530	         -0.00459360	         25.66728677	          0.27791836	         -1.47105594	        -10.00880956	          6.04308241	          0.21324943	        -11.27664249	         -1.16373191	          7.92854044	        -13.85919996	         12.01448227	         26.64552860	        -14.01859867	         -1.39468469	         -2.09511819	          0.02286098	          0.17981585	          0.04072129	          0.00999999	          0.09658433	          0.01222677	          0.01000003	          0.05308390	          0.01817080	          0.03553280	          0.06518707	          0.01777304	          0.01467262	          0.24347210	          0.02171830	          0.00999999	          0.00999999	          0.04224136	          0.01795138	          0.01334436	          0.13358737	          0.02152860	          0.07335997	          0.00999999	          0.00999999	          0.14633316	          0.26889366	          0.00999999	
          1.29319569	         -1.71054869	         -1.37046167	          7.95434578	          1.22204046	          0.88483372	         -0.00420086	         24.82188115	          0.74886500	         -0.35433112	        -10.12761628	          5.55786417	          0.21389864	        -11.87558796	         -1.21345784	          7.18171486	        -14.67988890	         11.57225667	         28.00015572	        -13.62334624	         -0.83320224	         -1.94685431	          0.01887299	          0.16513109	          0.03361766	          0.04324779	          0.07973567	          0.02205757	          0.01211304	          0.05511811	          0.01500099	          0.02933428	          0.07892414	          0.01467262	          0.01211306	          0.27600819	          0.04253703	          0.00999999	          0.00999999	          0.03487256	          0.01481985	          0.01101650	          0.13961734	          0.01777304	          0.06056269	          0.01000000	          0.00999999	          0.12080606	          0.25267506	          0.00999999	
          1.30587408	         -1.70782065	         -1.44707290	          7.57872725	          1.23736511	          0.88357933	         -0.00376769	         24.00886947	          1.23091956	          0.67736324	        -10.29866679	          5.02170946	          0.19748286	        -12.35239158	         -1.25802286	          6.39063266	        -15.71933819	         10.95651426	         29.36698958	        -13.23041355	         -0.22571531	         -1.79145451	          0.01558069	          0.13632478	          0.02775323	          0.07053528	          0.06582618	          0.03015013	          0.01000000	          0.04550302	          0.01238414	          0.02421706	          0.10818092	          0.01211305	          0.00999999	          0.30093115	          0.04926265	          0.00999999	          0.00999999	          0.02878922	          0.01223460	          0.01198988	          0.11865224	          0.01467262	          0.04999782	          0.00999999	          0.00999999	          0.09973204	          0.23245728	          0.00999999	
          1.31855247	         -1.69986623	         -1.54182199	          7.15088682	          1.25262989	          0.88283798	         -0.00330428	         23.23903765	          1.71567131	          1.60647752	        -10.56566579	          4.59407113	          0.18200728	        -12.66702737	         -1.29056323	          5.55192311	        -17.01888956	         10.13158264	         30.72009171	        -12.85284207	          0.41846107	         -1.62767943	          0.01286272	          0.11254359	          0.02291181	          0.09713852	          0.06590310	          0.03612161	          0.01000005	          0.03756524	          0.01022379	          0.01999251	          0.12693527	          0.00999999	          0.00999999	          0.31112458	          0.06826804	          0.00999999	          0.00999999	          0.02376708	          0.01312441	          0.02933452	          0.09795405	          0.01211306	          0.04127595	          0.00999999	          0.00999999	          0.08233427	          0.20727433	          0.00999999	
          1.33123086	         -1.68833427	         -1.64516440	          6.67374993	          1.26774759	          0.88269443	         -0.00282900	         22.49238623	          2.18429734	          2.40368136	        -10.89238618	          4.31084537	          0.16566821	        -12.78335193	         -1.30190811	          4.65897776	        -18.62320357	          9.10035374	         31.97218647	        -12.49925158	          1.08605848	         -1.45357880	          0.01061888	          0.09291091	          0.01891496	          0.12143200	          0.07972031	          0.04170592	          0.01000001	          0.03101217	          0.00999999	          0.01650492	          0.14274310	          0.00999999	          0.00999999	          0.30777927	          0.07930174	          0.00999999	          0.00999999	          0.01962103	          0.03619688	          0.04501163	          0.08428943	          0.00999999	          0.03407556	          0.00999999	          0.00999999	          0.06797146	          0.17249520	          0.00999999	
          1.34390925	         -1.67460735	         -1.74454516	          6.14799101	          1.28263328	          0.88318338	         -0.00236702	         21.74206519	          2.61683836	          3.05436690	        -11.21735927	          4.16166066	          0.15390053	        -12.66132736	         -1.28157079	          3.70179531	        -20.59134928	          7.92475778	         32.92650536	        -12.17824454	          1.76254379	         -1.26584128	          0.00999999	          0.07670306	          0.01561534	          0.13390055	          0.09744758	          0.04870419	          0.01000003	          0.02560225	          0.00999999	          0.01362572	          0.14939259	          0.01000000	          0.00999999	          0.29493049	          0.07802362	          0.00999999	          0.01000000	          0.01619824	          0.06222858	          0.05828621	          0.07295528	          0.00999999	          0.02813125	          0.00999999	          0.00999999	          0.05611417	          0.14240425	          0.00999999	
          1.35658763	         -1.65894734	         -1.82713232	          5.57776535	          1.29724711	          0.88425008	         -0.00194095	         20.96115395	          2.99948769	          3.59118152	        -11.48200438	          4.10755181	          0.14657334	        -12.27430765	         -1.22717905	          2.67056017	        -22.96889802	          6.70788793	         33.32333453	        -11.89377738	          2.43383326	         -1.06433050	          0.00999999	          0.06332259	          0.01289132	          0.13550154	          0.10715690	          0.05484767	          0.01000003	          0.02113606	          0.00999999	          0.01124878	          0.15093633	          0.01000000	          0.01000000	          0.27809093	          0.06556993	          0.00999999	          0.01294216	          0.01337253	          0.08373687	          0.06638526	          0.06022866	          0.00999999	          0.02322389	          0.00999999	          0.00999999	          0.04632533	          0.11756253	          0.00999999	
          1.36926602	         -1.64066218	         -1.88202703	          4.96768316	          1.31158496	          0.88578844	         -0.00156361	         20.13419553	          3.32345020	          4.06265100	        -11.65650635	          4.11966145	          0.14416945	        -11.61094526	         -1.14484987	          1.56840498	        -25.77395902	          5.48680598	         33.03752167	        -11.64665038	          3.08737890	         -0.84981815	          0.00999999	          0.05227627	          0.01064249	          0.12907150	          0.11624794	          0.05967575	          0.01000002	          0.02138907	          0.00999999	          0.01000000	          0.14821732	          0.00999999	          0.00999999	          0.26058950	          0.05413158	          0.00999999	          0.02001024	          0.01103976	          0.10543695	          0.07160451	          0.05123749	          0.00999999	          0.01917260	          0.00999999	          0.00999999	          0.03824410	          0.09705432	          0.00999999	
          1.38194441	         -1.61861731	         -1.90133748	          4.32106365	          1.32565986	          0.88767195	         -0.00123610	         19.25935390	          3.58322980	          4.50528565	        -11.73976751	          4.18474798	          0.14786176	        -10.67985407	         -1.04549219	          0.41346635	        -28.96107209	          4.16062315	         32.17322314	        -11.43602024	          3.71239335	         -0.62366933	          0.00999999	          0.04315693	          0.00999999	          0.11646570	          0.11015448	          0.06364124	          0.01000001	          0.02848637	          0.00999999	          0.01000000	          0.14247904	          0.00999999	          0.00999999	          0.24127389	          0.04468860	          0.01018461	          0.03224531	          0.00999999	          0.13309358	          0.06718106	          0.04976924	          0.00999999	          0.01582803	          0.00999999	          0.00999999	          0.03157261	          0.08012367	          0.00999999	
